<svg width="32" height="32" viewBox="0 0 32 32" fill="none" xmlns="http://www.w3.org/2000/svg">
<circle cx="16" cy="16" r="16" fill="white"/>
<path fillRule="evenodd" clip-rule="evenodd" d="M22.8601 8.70896L22.8601 8.70894L22.0133 7.99841L22.0031 8.01055C19.9492 10.4517 17.6934 11.1067 15.7959 11.0391C13.8592 10.9701 12.2723 10.1462 11.6366 9.6127L10.926 10.4595C11.7428 11.1448 13.5637 12.0657 15.7566 12.1438C16.7804 12.1803 17.8807 12.0326 18.9925 11.5986L9.85884 22.4837L10.7056 23.1942L19.8391 12.3094C19.6048 13.4795 19.6505 14.5886 19.8642 15.5904C20.3219 17.7364 21.545 19.3698 22.3617 20.0551L23.0722 19.2083C22.4365 18.6749 21.3495 17.2552 20.9452 15.3599C20.5505 13.5093 20.8008 11.1836 22.829 8.7461L22.8601 8.70902L22.8601 8.70898L22.8601 8.70896Z" fill="black"/>
</svg>
